<svg xmlns="http://www.w3.org/2000/svg" viewBox="0 0 176.16 190.06"><defs><style>.cls-1{fill:none;stroke:#000;stroke-miterlimit:10;stroke-width:14px;}</style></defs><g id="Layer_2" data-name="Layer 2"><g id="Layer_1-2" data-name="Layer 1"><g id="Layer_2-2" data-name="Layer 2"><g id="Layer_2-2-2" data-name="Layer 2-2"><path class="cls-1" d="M58.18,176.22C28.11,162.89,7,131.55,7,95,7,46.37,44.39,7,90.5,7c36.66,0,67.8,24.9,79,59.54"/><path class="cls-1" d="M168.86,125.51c-11.77,33.59-42.36,57.55-78.36,57.55a79.79,79.79,0,0,1-32.32-6.84"/><path class="cls-1" d="M139.5,109.94c-7.66,25.37-27,38.65-48.87,38.65-28.07,0-50.82-24-50.82-53.59S62.56,41.45,90.63,41.45c22.3,0,41.93,15.33,48.87,38.61"/><path class="cls-1" d="M75.6,59.14c9.33,13.51,26.57,16.48,33.51,17.18,8.8.89,19.74,1.23,28-2.88"/><path class="cls-1" d="M75.6,130.88c9.33-13.51,26.57-16.48,33.51-17.18,8.8-.89,17.44-2.3,28,2.88"/><path class="cls-1" d="M54.89,176.22a59.57,59.57,0,0,1,6.42-25.77"/><path class="cls-1" d="M54.89,14.64a59.58,59.58,0,0,0,6.42,25.74"/></g></g></g></g></svg>